<?xml version="1.0" encoding="iso-8859-1"?>
<!-- Generator: Adobe Illustrator 19.0.0, SVG Export Plug-In . SVG Version: 6.00 Build 0)  -->
<svg xmlns="http://www.w3.org/2000/svg" xmlns:xlink="http://www.w3.org/1999/xlink" version="1.1" id="Capa_1" x="0px" y="0px" viewBox="0 0 512 512" style="enable-background:new 0 0 512 512;" xml:space="preserve" width="512px" height="512px">
<g>
	<g>
		<path d="M504.556,55.83c-6.226-8.768-15.494-14.587-26.094-16.384c-10.604-1.796-21.27,0.642-30.037,6.866    c-8.755,6.217-14.571,15.466-16.376,26.048l-1.642,9.308c-115.766-18.21-232.934-18.234-348.703-0.076l-1.761-9.967    c-3.74-21.851-24.544-36.606-46.411-32.9C11.647,42.436-3.14,63.26,0.57,85.147L63.2,454.511    c1.849,10.889,11.326,18.611,22.021,18.61c1.235,0,2.488-0.104,3.747-0.316l35.321-5.99c12.146-2.06,20.354-13.618,18.295-25.767    l-28.397-167.471c94.371-12.407,189.372-12.416,283.747-0.029l-28.524,168.22c-0.998,5.885,0.354,11.806,3.812,16.674    c3.455,4.867,8.599,8.097,14.484,9.095l35.322,5.989c1.263,0.214,2.527,0.32,3.784,0.32c4.594,0,9.066-1.418,12.888-4.131    c4.868-3.456,8.098-8.6,9.095-14.484l62.63-369.363C513.221,75.265,510.783,64.597,504.556,55.83z M30.176,80.127    c-0.943-5.562,2.815-10.853,8.376-11.796c5.555-0.946,10.853,2.815,11.796,8.376l1.733,9.809l-20.24,3.43L30.176,80.127z     M91.522,441.914L64.289,281.312c6.721-1.198,13.447-2.325,20.176-3.397l27.229,160.58L91.522,441.914z M420.472,442.635    l-20.171-3.42l27.357-161.336c6.729,1.071,13.456,2.193,20.177,3.39L420.472,442.635z M452.854,251.656    c-130.63-23.235-262.847-23.23-393.467,0.019L36.872,119.549l36.102-6.118c121.32-20.559,244.346-20.559,365.668,0l36.168,6.13    L452.854,251.656z M481.816,80.846l-1.556,9.182l-20.233-3.428l1.619-9.174c0.456-2.694,1.936-5.049,4.163-6.63    c2.228-1.581,4.942-2.204,7.633-1.745c2.694,0.456,5.049,1.936,6.63,4.163C481.654,75.442,482.274,78.152,481.816,80.846z" fill="#950000"/>
	</g>
</g>
<g>
</g>
<g>
</g>
<g>
</g>
<g>
</g>
<g>
</g>
<g>
</g>
<g>
</g>
<g>
</g>
<g>
</g>
<g>
</g>
<g>
</g>
<g>
</g>
<g>
</g>
<g>
</g>
<g>
</g>
</svg>
