<?xml version="1.0" encoding="iso-8859-1"?>
<!-- Generator: Adobe Illustrator 19.0.0, SVG Export Plug-In . SVG Version: 6.00 Build 0)  -->
<svg xmlns="http://www.w3.org/2000/svg" xmlns:xlink="http://www.w3.org/1999/xlink" version="1.1" id="Capa_1" x="0px" y="0px" viewBox="0 0 57 57" style="enable-background:new 0 0 57 57;" xml:space="preserve" width="512px" height="512px">
<g>
	<g>
	</g>
	<g>
		<path d="M51.395,25.553C51.225,25.214,50.879,25,50.5,25h-2h-10v-8c0-2.757-2.243-5-5-5h-10c-2.757,0-5,2.243-5,5v8h-10h-2    c-0.379,0-0.725,0.214-0.895,0.553l-5,10c-0.155,0.31-0.138,0.678,0.044,0.973S1.153,37,1.5,37h4v15c0,2.757,2.243,5,5,5h8h8h12h8    c2.757,0,5-2.243,5-5V37h4c0.347,0,0.668-0.18,0.851-0.475s0.199-0.663,0.044-0.973L51.395,25.553z M20.5,17c0-1.654,1.346-3,3-3    h10c1.654,0,3,1.346,3,3v8h-4.026c0.635-0.838,1.026-1.87,1.026-3c0-0.553-0.448-1-1-1h-8c-0.552,0-1,0.447-1,1    c0,1.13,0.391,2.162,1.026,3H20.5V17z M25.671,23h5.657c-0.413,1.164-1.525,2-2.829,2S26.084,24.164,25.671,23z M7.118,27H8.5h11    h17.382l-4,8H3.118L7.118,27z M7.5,52V37h26c0.379,0,0.725-0.214,0.895-0.553l3.105-6.211V55h-10V44    c0-0.347-0.18-0.668-0.474-0.851c-0.295-0.183-0.664-0.198-0.973-0.044L24.5,43.882l-1.553-0.776    c-0.282-0.141-0.613-0.141-0.895,0L20.5,43.882l-1.553-0.776c-0.31-0.154-0.678-0.139-0.973,0.044    C17.68,43.332,17.5,43.653,17.5,44v11h-7C8.846,55,7.5,53.654,7.5,52z M19.5,55v-9.382l0.553,0.276    c0.281,0.141,0.613,0.141,0.895,0l1.552-0.776l1.553,0.776c0.282,0.141,0.613,0.141,0.895,0l0.552-0.276V55H19.5z M49.5,52    c0,1.654-1.346,3-3,3h-7V30.236l3.105,6.211C42.775,36.786,43.121,37,43.5,37h6V52z M44.118,35l-4-8H48.5h1.382l4,8H44.118z" fill="#950000"/>
		<circle cx="25.5" cy="18" r="1" fill="#950000"/>
		<circle cx="31.5" cy="18" r="1" fill="#950000"/>
		<path d="M8.5,23h2c0-5.514-4.486-10-10-10v2C4.911,15,8.5,18.589,8.5,23z" fill="#950000"/>
		<path d="M12.5,14h2c0-7.168-5.832-13-13-13v2C7.565,3,12.5,7.935,12.5,14z" fill="#950000"/>
		<path d="M23.5,10h2c0-4.963-4.038-9-9-9v2C20.36,3,23.5,6.141,23.5,10z" fill="#950000"/>
		<path d="M46.5,23h2c0-4.411,3.589-8,8-8v-2C50.986,13,46.5,17.486,46.5,23z" fill="#950000"/>
		<path d="M55.5,3V1c-7.168,0-13,5.832-13,13h2C44.5,7.935,49.435,3,55.5,3z" fill="#950000"/>
		<path d="M40.5,3V1c-4.962,0-9,4.037-9,9h2C33.5,6.141,36.64,3,40.5,3z" fill="#950000"/>
		<rect x="12.5" y="16" width="2" height="2" fill="#950000"/>
		<rect x="12.5" y="20" width="2" height="2" fill="#950000"/>
		<rect x="42.5" y="16" width="2" height="2" fill="#950000"/>
		<rect x="42.5" y="20" width="2" height="2" fill="#950000"/>
		<rect x="12.5" y="1" width="2" height="2" fill="#950000"/>
		<rect x="42.5" y="1" width="2" height="2" fill="#950000"/>
		<rect x="27.5" y="8" width="2" height="2" fill="#950000"/>
		<rect x="27.5" y="4" width="2" height="2" fill="#950000"/>
		<rect x="27.5" width="2" height="2" fill="#950000"/>
		<rect x="17.5" y="8" width="2" height="2" fill="#950000"/>
		<rect x="37.5" y="8" width="2" height="2" fill="#950000"/>
	</g>
</g>
<g>
</g>
<g>
</g>
<g>
</g>
<g>
</g>
<g>
</g>
<g>
</g>
<g>
</g>
<g>
</g>
<g>
</g>
<g>
</g>
<g>
</g>
<g>
</g>
<g>
</g>
<g>
</g>
<g>
</g>
</svg>
