<?xml version="1.0" encoding="iso-8859-1"?>
<!-- Generator: Adobe Illustrator 19.0.0, SVG Export Plug-In . SVG Version: 6.00 Build 0)  -->
<svg xmlns="http://www.w3.org/2000/svg" xmlns:xlink="http://www.w3.org/1999/xlink" version="1.1" id="Layer_1" x="0px" y="0px" viewBox="0 0 512.001 512.001" style="enable-background:new 0 0 512.001 512.001;" xml:space="preserve" width="512px" height="512px">
<g>
	<g>
		<path d="M441.866,331.213H262.269c-4.328,0-7.837,3.508-7.837,7.837c0,4.329,3.509,7.837,7.837,7.837h179.597    c4.328,0,7.837-3.508,7.837-7.837C449.703,334.722,446.194,331.213,441.866,331.213z" fill="#950000"/>
	</g>
</g>
<g>
	<g>
		<path d="M493.714,87.23h-9.307V65.828c0-4.329-3.509-7.837-7.837-7.837c-4.328,0-7.837,3.508-7.837,7.837V87.23h-71.011V32.915    h71.011v6.791c0,4.329,3.509,7.837,7.837,7.837c4.328,0,7.837-3.508,7.837-7.837v-9.403c0-7.203-5.859-13.061-13.061-13.061    H395.11c-7.203,0-13.061,5.859-13.061,13.061v6.122h-63.304c-7.203,0-13.061,5.859-13.061,13.061v4.524h-52.436V42.86    c0-7.202-5.859-13.061-13.061-13.061h-13.444c-4.328,0-7.837,3.508-7.837,7.837c0,4.329,3.509,7.837,7.837,7.837h10.832v9.466    c-4.828,1.919-8.256,6.63-8.256,12.133V87.23h-62.755V45.472h30.921c4.328,0,7.837-3.508,7.837-7.837    c0-4.329-3.509-7.837-7.837-7.837h-33.533c-7.203,0-13.061,5.859-13.061,13.061v41.943c-7.48-11.134-20.19-18.479-34.583-18.479    c-0.835,0-1.662,0.031-2.485,0.08C113.031,53.604,102.388,43.43,89.41,43.43h-1.86c-2.689-6.756-9.281-11.551-16.984-11.551    h-52.28C8.203,31.878,0,40.082,0,50.164v4.426c0,10.082,8.203,18.286,18.286,18.286h52.28c8.523,0,15.682-5.87,17.698-13.774    h1.145c4.849,0,8.794,3.961,8.794,8.83c0,0.508,0.049,1.016,0.147,1.514l0.171,0.875c-14.085,6.683-23.851,21.039-23.851,37.638    c0,22.355,17.709,40.643,39.835,41.591l35.603,173.334c0.611,2.977,1.68,5.764,3.087,8.329h-17.203    c-17.797,0-32.276,14.502-32.276,32.328c0,17.825,14.479,32.327,32.276,32.327h25.321c0.095,0.203,0.194,0.405,0.307,0.602    l1.528,2.651c-12.618,9.772-20.766,25.066-20.766,42.245c0,29.441,23.908,53.393,53.296,53.393s53.296-23.952,53.296-53.393    c0-17.177-8.148-32.472-20.766-42.245l1.528-2.651c0.114-0.197,0.213-0.399,0.307-0.602H359.78    c0.095,0.203,0.194,0.405,0.307,0.602l1.528,2.651c-12.618,9.772-20.766,25.068-20.766,42.245    c0,29.441,23.908,53.393,53.295,53.393c29.388,0,53.296-23.952,53.296-53.393c0-17.178-8.148-32.473-20.766-42.245l1.527-2.651    c0.114-0.197,0.213-0.399,0.307-0.602h15.574c4.328,0,7.837-3.508,7.837-7.837c0-4.329-3.509-7.837-7.837-7.837H135.992    c-9.154,0-16.602-7.47-16.602-16.654c0-9.184,7.448-16.655,16.602-16.655h93.885c4.328,0,7.837-3.508,7.837-7.837    s-3.509-7.837-7.837-7.837h-50.373c-6.77,0-12.676-4.828-14.042-11.481l-35.424-172.471c2.333-0.817,4.571-1.838,6.697-3.039    l36.268,169.142c1.381,6.443,7.393,11.301,13.982,11.301h251.409c6.589,0,12.6-4.858,13.983-11.302l39.597-184.673h1.742    c10.082,0,18.286-8.203,18.286-18.286v-4.888C512,95.433,503.797,87.23,493.714,87.23z M73.178,54.591    c0,1.417-1.196,2.612-2.612,2.612h-52.28c-1.416,0-2.612-1.195-2.612-2.612v-4.426c0-1.416,1.196-2.612,2.612-2.612h52.28    c1.416,0,2.612,1.196,2.612,2.612V54.591z M410.461,395.868l-16.315,28.321l-16.315-28.321H410.461z M369.541,412.877l3.491,6.06    c-5.958,5.629-9.686,13.598-9.686,22.43c0,17.011,13.817,30.85,30.8,30.85c8.213,0,15.938-3.199,21.751-9.007    c3.062-3.06,3.064-8.022,0.004-11.083c-3.058-3.06-8.021-3.064-11.083-0.004c-2.853,2.852-6.643,4.422-10.673,4.422    c-8.34,0-15.127-6.809-15.127-15.176c0-2.95,0.846-5.704,2.306-8.034l3.422,5.94c2.09,3.627,5.603,5.792,9.399,5.792    c3.795,0,7.309-2.165,9.399-5.792l3.417-5.93c0.699,1.111,1.273,2.313,1.664,3.606c1.253,4.143,5.628,6.485,9.77,5.233    c4.143-1.253,6.486-5.627,5.233-9.77c-1.609-5.323-4.531-9.922-8.341-13.519l3.466-6.017c7.963,6.919,13.017,17.12,13.017,28.49    c0,20.799-16.877,37.72-37.623,37.72c-20.744,0-37.622-16.92-37.622-37.72C356.524,429.997,361.579,419.798,369.541,412.877z     M211.994,395.868l-16.316,28.321l-16.315-28.321H211.994z M210.805,441.366c0,8.369-6.786,15.176-15.127,15.176    c-8.34,0-15.126-6.809-15.126-15.176c0-2.95,0.846-5.703,2.306-8.034l3.421,5.94c2.09,3.627,5.603,5.792,9.399,5.792    c3.795,0,7.309-2.165,9.399-5.792l3.422-5.94C209.959,435.663,210.805,438.417,210.805,441.366z M171.074,412.877l3.491,6.06    c-5.957,5.629-9.685,13.599-9.685,22.43c0,17.011,13.817,30.85,30.799,30.85c16.983,0,30.8-13.839,30.8-30.85    c0-8.83-3.728-16.801-9.686-22.43l3.491-6.06c7.963,6.92,13.017,17.12,13.017,28.49c0,20.799-16.877,37.72-37.623,37.72    c-20.745,0-37.623-16.92-37.623-37.72C158.057,429.997,163.111,419.797,171.074,412.877z M116.309,133.924    c-14.316,0-25.963-11.646-25.963-25.964s11.646-25.964,25.963-25.964s25.963,11.646,25.963,25.964    S130.624,133.924,116.309,133.924z M321.357,52.098h60.692V87.23h-60.692V52.098z M244.993,69.684h60.691V87.23h-60.691V69.684z     M150.173,132.138c0.795-1.111,1.536-2.261,2.221-3.449h44.836l2.635,22.522h-45.603L150.173,132.138z M157.623,166.884h44.076    l3.107,26.55h-41.491L157.623,166.884z M172.395,235.656L172.395,235.656c-0.008,0-0.017,0.001-0.025,0.001l-5.693-26.55h39.964    l3.107,26.549H172.395z M175.73,251.33h35.852l3.106,26.55h-33.265L175.73,251.33z M188.093,308.991l-3.31-15.437h31.739    l1.807,15.437H188.093z M269.596,308.991h-35.487l-1.807-15.437h37.293V308.991z M269.596,277.881h-39.127l-3.106-26.55h42.234    V277.881z M269.596,235.656h-44.069l-3.107-26.549h47.175V235.656z M269.596,193.434h-49.009l-3.107-26.55h52.116V193.434z     M269.596,151.211h-53.95l-2.635-22.522h56.585V151.211z M332.386,308.991h-47.118v-15.437h47.118V308.991z M332.386,277.881    h-47.118V251.33h47.118V277.881z M332.387,193.434h-0.001h-7.423c-4.328,0-7.837,3.508-7.837,7.837    c0,4.329,3.509,7.837,7.837,7.837h7.423v26.549h-47.118v-26.549h9.393c4.328,0,7.837-3.508,7.837-7.837    c0-4.329-3.509-7.837-7.837-7.837h-9.392v-26.55h47.118V193.434z M285.269,151.211v-22.522h47.118v22.522H285.269z     M384.654,308.991H348.06v-15.437h38.392L384.654,308.991z M388.277,277.881H348.06V251.33h43.308L388.277,277.881z     M393.193,235.656h-45.132v-26.549h48.224L393.193,235.656z M348.06,193.434v-26.55h53.139l-3.091,26.55H348.06z M437.284,308.991    h-36.849l1.797-15.437h38.361L437.284,308.991z M443.954,277.881h-39.898l3.091-26.55h42.499L443.954,277.881z M453.007,235.656    h-44.035l3.091-26.549H458.7L453.007,235.656z M462.061,193.434h-48.173l3.091-26.55h50.774L462.061,193.434z M471.114,151.211    h-52.31l2.622-22.522h54.517L471.114,151.211z M496.327,110.403c0,1.416-1.196,2.612-2.612,2.612h-97.698    c-4.328,0-7.837,3.508-7.837,7.837c0,4.329,3.509,7.837,7.837,7.837h9.631l-2.622,22.522h-54.965v-22.522h16.609    c4.328,0,7.837-3.508,7.837-7.837c0-4.329-3.509-7.837-7.837-7.837H157.626c0.202-1.658,0.318-3.343,0.318-5.055    c0-1.714-0.116-3.398-0.319-5.057h336.089c1.416,0,2.612,1.196,2.612,2.612V110.403z" fill="#950000"/>
	</g>
</g>
<g>
	<g>
		<path d="M116.309,87.043c-11.534,0-20.917,9.383-20.917,20.918c0,11.534,9.383,20.918,20.917,20.918s20.918-9.383,20.918-20.918    C137.225,96.426,127.842,87.043,116.309,87.043z M116.309,113.205c-2.891,0-5.243-2.352-5.243-5.244s2.352-5.244,5.243-5.244    s5.244,2.353,5.244,5.244C121.552,110.853,119.2,113.205,116.309,113.205z" fill="#950000"/>
	</g>
</g>
<g>
</g>
<g>
</g>
<g>
</g>
<g>
</g>
<g>
</g>
<g>
</g>
<g>
</g>
<g>
</g>
<g>
</g>
<g>
</g>
<g>
</g>
<g>
</g>
<g>
</g>
<g>
</g>
<g>
</g>
</svg>
